<svg xmlns="http://www.w3.org/2000/svg" width="82" height="82" viewBox="0 0 82 82"><g><g><path fill="#fff" d="M25.203 1.774h.161l.161.054c0-.054.054-.054.161 0 .86.107 1.558.16 2.149.268.59.054 1.074.215 1.396.484.322.268.59.644.752 1.127.16.537.214 1.29.214 2.31 0 .644 0 1.288-.053 1.933-.054.644-.054 1.289-.054 1.933v22.448c0 .376 0 .805.054 1.289.053.483.053.913.053 1.288v.645c0 .215 0 .376-.053.59-.108.484-.322.914-.645 1.182-.322.322-.698.537-1.181.752-.483.215-.913.322-1.45.43-.483.107-.967.16-1.343.214.054.108.054.215.054.323 0 .107 0 .214.054.322 1.557 0 3.06-.054 4.51-.215 1.45-.107 2.954-.215 4.512-.215.752 0 1.503.108 2.309.269.806.16 1.557.215 2.31.107 0-.161.053-.43.107-.752-.269-.107-.645-.16-1.128-.268l-1.289-.322c-.43-.162-.806-.323-1.128-.537-.322-.215-.59-.538-.698-.86-.054-.268-.107-.537-.054-.805a2.034 2.034 0 0 0 0-.806c-.107-.644-.16-1.342-.214-2.148-.054-.752-.054-1.45-.054-2.148.054-3.813.054-7.572.054-11.331V8.165c0-.376 0-.806-.054-1.182a4.352 4.352 0 0 1 0-1.181c0-.376.054-.752.107-1.128.054-.43.215-.752.376-1.128.161-.268.484-.537 1.02-.752.538-.214 1.075-.322 1.665-.43.591-.107 1.182-.16 1.773-.214.59-.054 1.02-.054 1.396-.054h1.02c.322 0 .645.054 1.02.108.484.053.913.214 1.397.376.483.16.913.375 1.342.59 1.45.698 2.578 1.719 3.384 3.061.805 1.343 1.181 2.793 1.181 4.404 0 1.128-.215 2.255-.59 3.33-.43 1.074-.967 2.04-1.72 2.846a8.567 8.567 0 0 1-2.63 1.933 7.755 7.755 0 0 1-3.33.752h-.43c-.107 0-.268 0-.43-.054-.16-.054-.322-.107-.536-.16a1.908 1.908 0 0 0-.537-.108.996.996 0 0 0-.376.107.488.488 0 0 0-.162.376c0 .215.054.322.215.43.108.107.269.16.484.214.16.054.376.054.537.054h.483c.537.054 1.128 0 1.665 0 .537-.054 1.128-.107 1.665-.161.268-.054.59-.054.859-.054a4.7 4.7 0 0 0 .859-.107c.483-.108 1.074-.376 1.719-.645a18.011 18.011 0 0 0 1.933-1.127c.644-.43 1.181-.86 1.772-1.343.537-.483.967-.86 1.289-1.289.215-.322.43-.644.537-1.02.161-.376.322-.698.537-1.074.161-.269.376-.483.59-.752.215-.215.377-.483.484-.805.107-.269.161-.699.161-1.29V8.757 7.95c0-.269-.054-.537-.054-.806-.053-.268-.053-.43-.107-.537-.107-.268-.322-.537-.537-.805a4.055 4.055 0 0 1-.59-.752c-.538-.86-1.021-1.557-1.343-1.933-.323-.43-.699-.752-1.074-.913a4.374 4.374 0 0 0-1.343-.484c-.537-.107-1.235-.376-2.148-.752-.269-.107-.483-.214-.645-.268-.16-.107-.322-.215-.483-.269a1.608 1.608 0 0 0-.537-.214c-.215-.054-.43 0-.752 0h-4.564c-1.02 0-2.041.053-3.061.107h-2.954c-.59 0-1.182 0-1.719.054-.59.053-1.127.053-1.718.053-1.289 0-2.578-.053-3.867-.16-.268-.054-.59-.054-.859-.108-.483.054-.752.054-1.074.054-.268 0-.537.053-.86.107-.321.107-.483.269-.483.59 0 .216.108.377.269.592z"/></g><g><path fill="#fff" d="M55.867 79.804h-.16l-.162-.054c0 .054-.054.054-.161 0-.86-.107-1.557-.161-2.148-.268-.59-.054-1.074-.215-1.396-.484a2.46 2.46 0 0 1-.752-1.127c-.161-.537-.215-1.29-.215-2.31 0-.644 0-1.289.054-1.933.053-.644.053-1.289.053-1.933V49.3c0-.376 0-.806-.053-1.29-.054-.482-.054-.912-.054-1.288v-.644c0-.215 0-.376.054-.591.107-.483.322-.913.644-1.182.322-.322.698-.537 1.182-.751.483-.215.912-.323 1.45-.43.483-.107.966-.161 1.342-.215-.054-.107-.054-.215-.054-.322 0-.107 0-.215-.053-.322-1.558 0-3.061.053-4.511.215-1.45.107-2.954.214-4.511.214-.752 0-1.504-.107-2.31-.268-.805-.161-1.557-.215-2.309-.108 0 .162-.054.43-.107.752.268.108.644.161 1.128.269l1.288.322c.43.161.806.322 1.128.537.322.215.59.537.698.86.054.268.108.536.054.805a2.034 2.034 0 0 0 0 .805c.107.645.161 1.343.215 2.148.053.752.053 1.45.053 2.149-.053 3.759-.053 7.572-.053 11.33v11.332c0 .376 0 .806.053 1.182.054.375.054.805 0 1.181 0 .376-.053.752-.107 1.128-.054.43-.215.752-.376 1.128-.16.268-.483.537-1.02.751-.537.215-1.074.323-1.665.43-.59.107-1.181.161-1.772.215-.59.053-1.02.053-1.396.053h-1.02c-.323 0-.645-.053-1.021-.107-.483-.054-.913-.215-1.396-.376-.484-.215-.913-.376-1.343-.59-1.45-.699-2.578-1.72-3.383-3.062-.806-1.342-1.182-2.792-1.182-4.403 0-1.128.215-2.256.591-3.33.43-1.074.967-2.04 1.719-2.846a8.567 8.567 0 0 1 2.631-1.933 7.755 7.755 0 0 1 3.33-.752h.483c.107 0 .268 0 .43.054.16.053.322.107.537.16.16.054.375.108.537.108a.996.996 0 0 0 .375-.107.488.488 0 0 0 .162-.376c0-.215-.054-.322-.215-.43-.108-.107-.269-.161-.484-.215-.16-.053-.375-.053-.537-.053h-.483c-.537-.054-1.128 0-1.665 0-.537.053-1.127.107-1.664.16-.269.054-.591.054-.86.054-.268 0-.59.054-.859.108-.483.107-1.074.376-1.718.644-.645.322-1.29.698-1.934 1.128-.644.43-1.181.86-1.772 1.343-.537.483-.967.859-1.289 1.288-.215.323-.43.645-.537 1.02-.107.377-.322.699-.537 1.075-.16.268-.376.483-.59.752a2.022 2.022 0 0 0-.484.805c-.107.269-.161.698-.161 1.29v2.738c0 .268.054.537.054.805.053.269.053.43.107.537.108.269.322.537.537.806.215.215.43.483.59.752.538.86 1.021 1.557 1.343 1.933.323.43.699.752 1.074.913.376.215.806.376 1.343.483.537.108 1.235.376 2.148.752.269.108.483.215.645.269.16.107.322.215.483.268.161.108.322.161.537.215.215.054.483.054.805.054H39.81c1.02 0 2.04-.054 3.061-.108h2.954c.59 0 1.181 0 1.718-.053.591-.054 1.128-.054 1.719-.054 1.289 0 2.578.054 3.866.161.269.054.591.054.86.107.268.054.59.054.859.054.268 0 .537-.054.86-.107.321-.108.482-.269.482-.591 0-.215-.107-.376-.268-.59z"/></g><g><path fill="#fff" d="M81.107 45.005v-3.061c0-1.02-.053-2.041-.107-3.062v-.805-1.074-1.074c0-.59 0-1.182-.054-1.719-.053-.59-.053-1.127-.053-1.718 0-1.289.053-2.578.16-3.867.054-.268.054-.59.108-.859.054-.268.054-.59.054-.86 0-.268-.054-.536-.108-.858-.107-.323-.268-.484-.59-.484-.215 0-.376.108-.591.269l-.269.16v.162l-.053.161c.053 0 .053.054 0 .161-.108.86-.161 1.558-.269 2.148-.053.591-.215 1.074-.483 1.397a2.46 2.46 0 0 1-1.128.751c-.537.162-1.289.215-2.309.215-.644 0-1.289 0-1.933-.053-.645-.054-1.29-.054-1.934-.054H49.101c-.376 0-.806 0-1.29.054-.482.053-.912.053-1.288.053h-.644c-.215 0-.376 0-.591-.053-.483-.108-.913-.323-1.182-.645-.322-.322-.537-.698-.751-1.181-.215-.484-.323-.913-.43-1.45-.107-.484-.161-.967-.215-1.343-.107.054-.215.054-.322.054-.108 0-.215 0-.322.054 0 1.557.053 3.06.214 4.51.108 1.45.215 2.954.215 4.512 0 .751-.107 1.503-.268 2.309-.161.805-.215 1.557-.108 2.309.161 0 .43.054.752.107.108-.268.161-.644.269-1.127l.322-1.29c.161-.429.322-.805.537-1.127.215-.322.537-.59.86-.698.268-.054.536-.108.805-.054.268.054.537.054.805 0 .645-.107 1.343-.16 2.148-.215.752-.053 1.45-.053 2.148-.053 3.813.053 7.573.053 11.332.053h11.331c.376 0 .806 0 1.181-.053a4.352 4.352 0 0 1 1.182 0c.376 0 .752.053 1.128.107.43.054.751.215 1.127.376.269.161.537.483.752 1.02.215.537.322 1.074.43 1.665.107.59.161 1.182.215 1.772.053.591.053 1.02.053 1.397v1.02c0 .322-.053.644-.107 1.02-.054.484-.215.913-.376 1.397-.161.483-.376.912-.59 1.342-.699 1.45-1.72 2.578-3.062 3.383-1.342.806-2.792 1.182-4.403 1.182-1.128 0-2.256-.215-3.33-.59-1.074-.43-2.04-.968-2.846-1.72a8.567 8.567 0 0 1-1.933-2.63 7.755 7.755 0 0 1-.752-3.33v-.43c0-.107 0-.269.053-.43.054-.16.108-.322.162-.537.053-.16.107-.376.107-.537a.995.995 0 0 0-.107-.376.488.488 0 0 0-.376-.16c-.215 0-.323.053-.43.214-.107.108-.161.269-.215.483-.053.162-.053.376-.053.537v.484c-.054.537 0 1.128 0 1.665.053.537.107 1.127.16 1.664.054.269.054.591.054.86 0 .268.054.59.108.859.107.483.376 1.074.644 1.718.322.645.698 1.29 1.128 1.934.43.644.86 1.181 1.342 1.772.484.537.86.966 1.29 1.289.322.214.644.43 1.02.537.376.16.698.322 1.074.537.268.16.483.376.752.59.214.215.483.376.805.484.269.107.698.16 1.289.16h2.739c.268 0 .537-.053.805-.053.269-.054.43-.054.537-.107.269-.108.537-.322.806-.537.215-.215.483-.43.752-.591.859-.537 1.557-1.02 1.933-1.343.43-.322.752-.698.913-1.074.215-.376.376-.805.483-1.342.108-.537.376-1.235.752-2.148.108-.269.215-.484.269-.645.107-.16.214-.322.268-.483.108-.161.161-.322.215-.537.054-.215.054-.483.054-.806v-.751c-.269-.376-.323-.645-.323-.913z"/></g><g><path fill="#fff" d="M33.473 50.59c.484-.054.913-.054 1.29-.054h.644c.214 0 .376 0 .59.054.484.107.913.322 1.182.644.322.322.537.698.752 1.182.214.483.322.912.43 1.45.107.483.16.966.214 1.342.107-.054.215-.054.322-.054.108 0 .215 0 .322-.053 0-1.558-.053-3.061-.214-4.511-.108-1.45-.215-2.954-.215-4.511 0-.752.107-1.504.268-2.31.161-.805.215-1.557.108-2.309-.161 0-.43-.053-.752-.107-.107.268-.161.644-.269 1.128l-.322 1.288c-.16.43-.322.806-.537 1.128-.215.322-.537.59-.86.698-.268.054-.536.108-.805.054a2.034 2.034 0 0 0-.805 0c-.645.107-1.343.161-2.148.215-.752.054-1.45.054-2.148.054-3.813-.054-7.572-.054-11.332-.054H8.072c-.376 0-.806 0-1.182.054a4.352 4.352 0 0 1-1.181 0c-.376 0-.752-.054-1.128-.108-.43-.054-.752-.215-1.127-.376-.269-.16-.537-.483-.752-1.02-.215-.537-.323-1.074-.43-1.665-.107-.59-.161-1.181-.215-1.772-.053-.59-.053-1.02-.053-1.396v-1.02c0-.323.053-.645.107-1.021.054-.483.215-.913.376-1.396.161-.484.376-.913.59-1.343.699-1.45 1.72-2.578 3.062-3.383 1.342-.806 2.792-1.182 4.403-1.182 1.128 0 2.256.215 3.33.591 1.074.43 2.04.967 2.846 1.719a8.568 8.568 0 0 1 1.933 2.631 7.755 7.755 0 0 1 .752 3.33v.375c0 .108 0 .269-.053.43-.054.161-.108.322-.162.537a1.908 1.908 0 0 0-.107.537c0 .108.054.269.107.376a.488.488 0 0 0 .376.161c.215 0 .323-.054.43-.215.107-.107.161-.268.215-.483.053-.161.053-.376.053-.537v-.483c.054-.537 0-1.128 0-1.665-.053-.537-.107-1.128-.16-1.665-.054-.268-.054-.59-.054-.86a4.7 4.7 0 0 0-.108-.858c-.107-.484-.376-1.074-.644-1.719a18.012 18.012 0 0 0-1.128-1.933c-.43-.645-.86-1.182-1.343-1.772-.483-.537-.859-.967-1.288-1.29-.323-.214-.645-.429-1.02-.536a10.01 10.01 0 0 1-1.075-.537c-.268-.161-.483-.376-.752-.591a2.022 2.022 0 0 0-.805-.483c-.269-.108-.698-.161-1.289-.161H7.857c-.268 0-.537.053-.805.053-.269.054-.43.054-.537.108-.269.107-.537.322-.806.537-.215.215-.483.43-.752.59-.859.537-1.557 1.02-1.933 1.343-.43.322-.752.698-.913 1.074a4.374 4.374 0 0 0-.483 1.343c-.108.537-.376 1.235-.752 2.148-.108.268-.215.483-.269.644-.107.161-.214.322-.268.483a1.608 1.608 0 0 0-.215.538c-.054.214 0 .43 0 .751V39.312c0 1.02.054 2.04.107 3.061v2.954c0 .59 0 1.181.054 1.718.054.591.054 1.128.054 1.719 0 1.289-.054 2.577-.161 3.866-.054.269-.054.591-.108.86.054.43.054.751.054 1.02 0 .268.054.537.107.86.108.321.269.482.591.482.215 0 .376-.107.59-.268l.27-.161v-.161l.053-.161c-.054 0-.054-.054 0-.161.107-.86.161-1.558.269-2.149.053-.59.214-1.074.483-1.396a2.46 2.46 0 0 1 1.128-.752c.537-.16 1.289-.214 2.309-.214.644 0 1.289 0 1.933.053.645.054 1.289.054 1.933.054h22.448c.322.107.806.107 1.235.054z"/></g></g></svg>